Coordinates
version=1
nRows=15
nColumns=34
inDegrees=yes

Units are S.I. units (second, meters, Newtons, ...)
If the header above contains a line with 'inDegrees', this indicates whether rotational values are in degrees (yes) or radians (no).

endheader
time	pelvis_tilt	pelvis_list	pelvis_rotation	pelvis_tx	pelvis_ty	pelvis_tz	hip_flexion_r	hip_adduction_r	hip_rotation_r	knee_angle_r	ankle_angle_r	subtalar_angle_r	mtp_angle_r	hip_flexion_l	hip_adduction_l	hip_rotation_l	knee_angle_l	ankle_angle_l	subtalar_angle_l	mtp_angle_l	lumbar_extension	lumbar_bending	lumbar_rotation	arm_flex_r	arm_add_r	arm_rot_r	elbow_flex_r	pro_sup_r	arm_flex_l	arm_add_l	arm_rot_l	elbow_flex_l	pro_sup_l
      6.50000000	      3.22282907	    -18.90355534	    -32.60708859	      4.50505655	      0.89711603	      3.25305937	     27.09274631	      3.58706165	     -1.20748035	     28.93233465	      4.03721267	      7.77825691	      0.00000000	     15.64244516	     17.01549797	      8.30962190	     13.73748130	    -11.69290412	    -22.02031448	      0.00000000	    -15.61346713	     -8.51820289	     25.42820023	     25.52873051	      4.50870441	     20.77939656	     27.79196866	    119.74817918	      8.16986454	     11.21362471	     27.34286553	     25.45568811	    103.56965626
      6.51666670	      3.49428060	    -18.96265969	    -33.28760762	      4.50488197	      0.90014300	      3.25845548	     25.53902204	      4.67905495	      2.02946727	     26.89554285	      4.89702545	      7.70620805	      0.00000000	     15.50109957	     16.73336821	      7.95685142	     14.22259025	    -11.59430626	    -22.46227182	      0.00000000	    -15.46134425	     -9.23739682	     25.82168445	     25.22502635	      5.58088222	     20.97473351	     27.77957429	    119.74817918	      8.48885913	     11.06247048	     24.66741828	     25.99238729	    103.72579115
      6.53333330	      3.36550980	    -18.53811036	    -33.09275620	      4.50601099	      0.90154519	      3.26326018	     24.51216289	      4.78859759	      3.73400266	     24.58956321	      5.65117228	      8.45530036	      0.00000000	     15.94011629	     16.94416386	      8.33131568	     14.92236094	    -11.31475130	    -22.71259567	      0.00000000	    -14.86990098	     -9.91514080	     25.10018438	     24.70653072	      6.69148213	     21.25837600	     27.95608392	    119.74817918	      8.89802592	     10.39232767	     24.18571418	     26.04805192	    103.75583699
      6.55000000	      3.73206126	    -18.25976056	    -33.04327039	      4.50742001	      0.90395858	      3.26807664	     22.87348913	      4.96309607	      5.76013030	     22.11521512	      5.50606608	      6.09600872	      0.00000000	     15.64963272	     17.22757581	      8.56386916	     15.20686547	    -11.20688921	    -23.29472644	      0.00000000	    -14.85869777	    -10.73622821	     24.54369456	     24.34310267	      7.69981993	     21.88207524	     27.69024566	    119.74817918	      8.71984225	     10.04354563	     21.85885827	     26.73139692	    103.96153515
      6.56666670	      3.68306629	    -17.74375790	    -32.91562665	      4.50929796	      0.90559953	      3.27261911	     22.08735138	      4.74489933	      6.20991018	     20.39226103	      6.41651575	      5.99443488	      0.00000000	     15.93261899	     17.53547024	      8.61798994	     15.63562384	    -11.08892850	    -23.46294371	      0.00000000	    -14.37834045	    -11.50981037	     24.01881005	     23.69419552	      8.56571464	     22.11783905	     27.68600694	    119.74817918	      8.88243581	      9.61665130	     21.65951065	     26.49332236	    104.00515815
      6.58333330	      3.84408973	    -17.84328503	    -32.53669652	      4.51053378	      0.90884228	      3.27718053	     20.71449949	      5.13597072	      7.82446548	     18.67747290	      6.65741044	      4.68406332	      0.00000000	     15.40192389	     17.34921649	      9.22862492	     15.73562090	    -10.81507536	    -23.06439948	      0.00000000	    -14.72985949	    -12.03231667	     22.90315249	     23.46973698	      9.80315849	     22.39933298	     26.89760118	    119.74817918	      9.07924237	      9.04598445	     20.52647574	     26.62765050	    104.58009060
      6.60000000	      3.81607509	    -17.71542326	    -32.82182575	      4.51339337	      0.91118807	      3.28249289	     19.74442659	      5.24692000	      8.21652013	     17.24293662	      7.60018693	      4.85891159	      0.00000000	     15.38334822	     17.25492517	      9.25304914	     16.22021833	    -10.27251007	    -23.25980010	      0.00000000	    -14.31963291	    -12.50456974	     22.77677320	     22.40887263	     10.79894071	     22.50779154	     26.46120155	    119.74817918	      8.89569792	      8.41524975	     20.26298372	     26.65441585	    104.71139168
      6.61666670	      3.69219020	    -17.76241407	    -33.53603223	      4.51479856	      0.91427831	      3.28844047	     18.59304493	      5.54341788	      8.09430600	     15.20965572	      7.22351764	      5.85822765	      0.00000000	     15.32922019	     16.76233172	      9.02623314	     16.52519391	     -9.75910915	    -23.42866306	      0.00000000	    -14.02960531	    -13.08666794	     22.85989650	     21.68723070	     11.88882222	     22.47432299	     25.73578979	    119.74817918	      8.77293727	      7.63500989	     20.04477925	     27.02258471	    104.85871098
      6.63333330	      3.71463205	    -18.21450909	    -34.36052388	      4.51469043	      0.91796442	      3.29377807	     17.23176325	      6.06739016	      7.36734518	     13.26916624	      6.46998082	      7.67165728	      0.00000000	     15.02804014	     15.92351417	      8.52875152	     16.88285294	     -9.11808602	    -23.58925735	      0.00000000	    -14.32441983	    -13.49228090	     22.99395782	     21.51318011	     12.84640767	     22.37584065	     24.59978935	    119.72799354	      8.88598264	      6.91221206	     20.14906076	     27.44984768	    105.17525124
      6.65000000	      3.53259486	    -18.62310390	    -35.13998104	      4.51411805	      0.92071813	      3.29688582	     16.62516415	      6.58227085	      6.25187812	     12.18151237	      4.74624105	      9.27560482	      0.00000000	     14.86018577	     15.13343183	      8.26963005	     16.88332431	     -9.12540137	    -23.59661903	      0.00000000	    -14.45578900	    -13.60322899	     23.32313968	     21.42667037	     13.25496434	     22.31194020	     23.78784606	    119.70273359	      8.89757532	      6.45938655	     20.47248478	     28.08174534	    105.39349686
      6.66666670	      3.57950559	    -19.61986754	    -35.19430142	      4.51497754	      0.92398209	      3.29792887	     16.31481769	      6.95328344	      1.89978428	     12.76740469	      3.33905282	     13.01163405	      0.00000000	     13.85682531	     14.27485323	      8.93042438	     16.64392249	     -8.95942175	    -23.99861531	      0.00000000	    -15.19239870	    -13.04907163	     23.45480706	     21.37160422	     13.33206750	     21.67959906	     22.79176827	    119.42281008	      9.03353966	      6.27577855	     21.51407625	     28.77301035	    106.01028738
      6.68333330	      3.08736187	    -20.28525613	    -35.75151085	      4.51575778	      0.92567052	      3.29921083	     16.89555807	      7.39073440	     -1.62396252	     13.96421225	      2.29480832	     16.38673270	      0.00000000	     13.71885171	     13.42814109	      9.42155616	     16.64709495	     -9.41977498	    -25.31374022	      0.00000000	    -15.21914818	    -12.36657868	     24.24480722	     21.22476136	     13.20589804	     21.63737795	     21.76731277	    119.18618984	      9.15714329	      6.36987108	     21.98097094	     29.25430733	    106.39522974
      6.70000000	      2.70407552	    -20.63459857	    -36.58109730	      4.51552550	      0.92689040	      3.30075183	     17.83858453	      7.54074703	     -5.41918064	     15.63105569	      1.27913348	     18.76358752	      0.00000000	     13.97001351	     12.76599822	      9.10429751	     16.98491535	     -9.32751198	    -25.69251187	      0.00000000	    -15.32359628	    -12.08611735	     25.57494759	     21.24566624	     12.98446851	     22.71023349	     20.65324536	    119.16313529	      9.77707339	      6.55306216	     22.12045893	     29.03437157	    106.59128257
      6.71666670	      2.21845243	    -20.63539449	    -37.53623322	      4.51440567	      0.92710534	      3.30188332	     19.70900889	      7.26034797	     -9.57249132	     18.42864025	      0.35197823	     20.50399271	      0.00000000	     14.50741163	     12.26387602	      8.40799414	     17.10393292	     -9.11659470	    -25.77453799	      0.00000000	    -15.38322004	    -12.05371683	     26.69339416	     21.46693425	     12.82471954	     23.70667060	     19.66660688	    119.02906003	     10.60128452	      6.86904535	     22.36490863	     28.33733842	    106.72116764
      6.73333330	      1.91311190	    -21.06979101	    -38.18629615	      4.51408053	      0.92770646	      3.30221690	     20.90044765	      7.29440120	    -12.20375382	     20.73176531	     -1.07725979	     20.52709288	      0.00000000	     14.64814646	     11.65732628	      8.17471452	     17.43542399	     -9.15340262	    -26.14321459	      0.00000000	    -15.73283077	    -11.50609991	     27.52260947	     21.59299914	     12.63612889	     24.03058968	     18.88378247	    118.88192297	     11.19366435	      7.35366153	     22.27406664	     27.70157330	    106.72358289
